<?xml version="1.0" standalone="no"?><!DOCTYPE svg PUBLIC "-//W3C//DTD SVG 1.1//EN" "http://www.w3.org/Graphics/SVG/1.1/DTD/svg11.dtd"><svg id="4b2fdfb0cdbdc95386cb8f35fe98a41d" viewBox="0 0 300 300" width="300" height="300" version="1.1" xmlns="http://www.w3.org/2000/svg" xmlns:xlink="http://www.w3.org/1999/xlink">

	 <g id="scene"  >
		
	 <polyline id="Polyline1"  fill="#fff"  points="290,10 290,290 20,290 20,20 280,20 280,280 30,280 30,30 270,30 270,270 40,270 40,40 260,40 260,260 50,260 50,50 250,50 250,250 60,250 60,60 240,60 240,240 70,240 70,70 230,70 230,230 80,230 80,80 220,80 220,220 90,220 90,90 210,90 210,210 100,210 100,100 200,100 200,200 110,200 110,110 190,110 190,190 120,190 120,120 180,120 180,180 130,180 130,130 170,130 170,170 140,170 140,140 160,140 160,160 150,160 150,150 150,150 150,150 160,150 160,160 140,160 140,140 170,140 170,170 "  stroke="#3b5998"  stroke-width="3"  >
	 </polyline> 
	 </g> <script type="text/ecmascript" xlink:href="js/svgdreams-canvas.js" />
 
 	 <script><![CDATA[
 
 	 setInterval('getInstruction();', 1000);  
 	 //]]></script> 

</svg>